# Blender v2.78 (sub 0) OBJ File: ''
# www.blender.org
mtllib TempSword.mtl
o Cube_Cube.001
v -0.100000 -0.100000 0.600000
v -0.100000 0.100000 0.600000
v -0.100000 -0.100000 -0.600000
v -0.100000 0.100000 -0.600000
v 0.100000 -0.100000 0.600000
v 0.100000 0.100000 0.600000
v 0.100000 -0.100000 -0.600000
v 0.100000 0.100000 -0.600000
v -0.100000 0.100000 -0.800000
v -0.100000 -0.100000 -0.800000
v 0.100000 -0.100000 -0.800000
v 0.100000 0.100000 -0.800000
v 0.600000 0.100000 -0.600000
v 0.600000 -0.100000 -0.600000
v 0.600000 0.100000 -0.800000
v 0.600000 -0.100000 -0.800000
v -0.600000 0.100000 -0.600000
v -0.600000 -0.100000 -0.600000
v -0.600000 0.100000 -0.800000
v -0.600000 -0.100000 -0.800000
v -0.100000 0.028634 -6.300000
v -0.100000 -0.028634 -6.300000
v 0.100000 -0.028634 -6.300000
v 0.100000 0.028634 -6.300000
vn -1.0000 0.0000 0.0000
vn 0.0000 0.0000 1.0000
vn 1.0000 0.0000 0.0000
vn 0.0000 -1.0000 0.0000
vn 0.0000 1.0000 0.0000
vn 0.0000 0.0000 -1.0000
vn 0.0000 -0.9999 -0.0130
vn 0.0000 0.9999 -0.0130
usemtl None
s off
f 1//1 2//1 4//1 3//1
f 8//2 7//2 14//2 13//2
f 7//3 8//3 6//3 5//3
f 5//2 6//2 2//2 1//2
f 3//4 7//4 5//4 1//4
f 8//5 4//5 2//5 6//5
f 12//3 11//3 23//3 24//3
f 7//4 3//4 10//4 11//4
f 4//5 8//5 12//5 9//5
f 10//4 3//4 18//4 20//4
f 13//3 14//3 16//3 15//3
f 12//5 8//5 13//5 15//5
f 11//6 12//6 15//6 16//6
f 7//4 11//4 16//4 14//4
f 18//1 17//1 19//1 20//1
f 3//2 4//2 17//2 18//2
f 9//6 10//6 20//6 19//6
f 4//5 9//5 19//5 17//5
f 22//6 21//6 24//6 23//6
f 11//7 10//7 22//7 23//7
f 9//8 12//8 24//8 21//8
f 10//1 9//1 21//1 22//1
